<svg width="180" height="171" viewBox="0 0 180 171" fill="none" xmlns="http://www.w3.org/2000/svg">
<g clip-path="url(#clip0_1_28)">
<path d="M83.5727 39.0806L77.8672 42.1725L79.584 44.8991C90.4018 62.1246 95.6929 78.137 96.2026 95.6731C89.1834 96.419 81.9848 94.982 75.4565 91.4601C66.7946 86.7873 60.1174 78.9897 56.1468 68.9155C52.6531 60.0522 53.0296 52.855 53.428 45.2341C53.6464 41.0523 53.8742 36.7204 53.4645 31.848C52.7106 22.9038 46.7346 12.3391 46.6758 12.2335L43.3699 6.4527L50.1702 7.72657C50.6945 7.82638 63.1875 10.2171 79.5483 17.2908C96.8422 24.7661 108.969 34.0818 115.578 44.9756C120.936 53.8142 122.635 64.1446 120.447 73.5244C120.035 75.2935 119.483 77.0277 118.794 78.7126C115.658 86.3552 109.863 91.9853 102.805 94.293C102.049 76.1877 96.4521 59.5904 85.2847 41.8002L83.5727 39.0806Z" fill="#4BDB71"/>
<path d="M97.8909 104.89C97.9884 101.56 97.9313 98.3059 97.719 95.107C99.662 94.8347 101.571 94.398 103.423 93.8022C103.706 93.71 103.988 93.6117 104.267 93.5107C104.57 97.4094 104.66 101.315 104.539 105.213L104.448 108.343L97.7986 108.018L97.8909 104.89Z" fill="#4BDB71"/>
</g>
<path fill-rule="evenodd" clip-rule="evenodd" d="M18 124.446H162C144.812 113.446 118.938 106.446 90 106.446C61.062 106.446 35.1879 113.446 18 124.446Z" fill="#B0652C"/>
<path d="M0.46875 166L3.125 138.5H12.4531L15.0625 166H9.85938L9.46875 161.563H6.15625L5.8125 166H0.46875ZM6.54688 157.172H9.04688L7.84375 143.188H7.59375L6.54688 157.172ZM22.9688 170.063C21.8854 170.063 20.9531 170.005 20.1719 169.891C19.401 169.787 18.7083 169.594 18.0938 169.313C17.4792 169.031 16.8646 168.635 16.25 168.125L18.1406 164.891C19.5052 165.703 20.8698 166.109 22.2344 166.109C23.1302 166.109 23.7969 165.823 24.2344 165.25C24.6719 164.677 24.8906 163.932 24.8906 163.016V160.719C24.4427 162.323 23.25 163.125 21.3125 163.125C20.1979 163.125 19.2969 162.859 18.6094 162.328C17.9219 161.797 17.4219 161.078 17.1094 160.172C16.7969 159.266 16.6406 158.255 16.6406 157.141V148.719C16.6406 147.458 16.776 146.349 17.0469 145.391C17.3177 144.422 17.7917 143.667 18.4688 143.125C19.1458 142.583 20.0938 142.313 21.3125 142.313C22.3438 142.313 23.1458 142.573 23.7188 143.094C24.3021 143.615 24.6927 144.318 24.8906 145.203V142.563H30.5938V162.656C30.5938 165.313 29.9792 167.208 28.75 168.344C27.5312 169.49 25.6042 170.063 22.9688 170.063ZM23.5781 158.906C24.4531 158.906 24.8906 158.115 24.8906 156.531V148.563C24.8906 148.135 24.7656 147.698 24.5156 147.25C24.276 146.802 23.9427 146.578 23.5156 146.578C22.974 146.578 22.6354 146.781 22.5 147.188C22.3646 147.583 22.2969 148.042 22.2969 148.563V156.531C22.2969 157.094 22.3646 157.63 22.5 158.141C22.6458 158.651 23.0052 158.906 23.5781 158.906ZM32.7812 166V142.563H38.4688V145.172C38.7396 144.266 39.2188 143.557 39.9062 143.047C40.5938 142.537 41.4583 142.281 42.5 142.281V146.953C42.0417 146.953 41.4948 147.005 40.8594 147.109C40.224 147.203 39.6667 147.339 39.1875 147.516C38.7083 147.682 38.4688 147.87 38.4688 148.078V166H32.7812ZM50.6875 166.25C46.0208 166.25 43.6875 163.828 43.6875 158.984V149.578C43.6875 147.37 44.3073 145.609 45.5469 144.297C46.7865 142.974 48.5 142.313 50.6875 142.313C52.8854 142.313 54.6042 142.974 55.8438 144.297C57.0833 145.609 57.7031 147.37 57.7031 149.578V158.984C57.7031 163.828 55.3646 166.25 50.6875 166.25ZM50.6875 161.938C51.1562 161.938 51.4896 161.771 51.6875 161.438C51.8958 161.094 52 160.662 52 160.141V148.688C52 147.323 51.5625 146.641 50.6875 146.641C49.8125 146.641 49.375 147.323 49.375 148.688V160.141C49.375 160.662 49.474 161.094 49.6719 161.438C49.8802 161.771 50.2188 161.938 50.6875 161.938ZM67.375 166V138.5H75.75L78.0625 155.266L80.3594 138.5H88.8125V166H83.7812V146.188L80.625 166H75.6875L72.3438 146.188V166H67.375ZM95.4219 166.25C94.1198 166.25 93.125 165.948 92.4375 165.344C91.7604 164.74 91.2969 163.912 91.0469 162.859C90.7969 161.807 90.6719 160.615 90.6719 159.281C90.6719 157.854 90.8125 156.688 91.0938 155.781C91.375 154.865 91.8542 154.115 92.5312 153.531C93.2188 152.948 94.1615 152.453 95.3594 152.047L98.8281 150.859V148.453C98.8281 147.193 98.4167 146.563 97.5938 146.563C96.8438 146.563 96.4688 147.073 96.4688 148.094V149.5H91.0312C91.0208 149.417 91.0156 149.313 91.0156 149.188C91.0156 149.052 91.0156 148.901 91.0156 148.734C91.0156 146.401 91.5625 144.75 92.6562 143.781C93.7604 142.802 95.5052 142.313 97.8906 142.313C99.1406 142.313 100.26 142.537 101.25 142.984C102.24 143.422 103.021 144.073 103.594 144.938C104.177 145.802 104.469 146.87 104.469 148.141V166H98.9062V163.219C98.6354 164.198 98.1875 164.948 97.5625 165.469C96.9375 165.99 96.224 166.25 95.4219 166.25ZM97.625 161.906C98.0833 161.906 98.3958 161.714 98.5625 161.328C98.7292 160.943 98.8125 160.526 98.8125 160.078V153.547C98.0417 153.859 97.4427 154.255 97.0156 154.734C96.5885 155.203 96.375 155.896 96.375 156.813V159.828C96.375 161.214 96.7917 161.906 97.625 161.906ZM106.625 166V142.563H112.219V145.547C112.427 144.651 112.812 143.891 113.375 143.266C113.948 142.63 114.74 142.313 115.75 142.313C117.375 142.313 118.552 142.813 119.281 143.813C120.021 144.813 120.391 146.182 120.391 147.922V166H114.875V148.5C114.875 148.042 114.781 147.62 114.594 147.234C114.406 146.839 114.083 146.641 113.625 146.641C113.198 146.641 112.88 146.792 112.672 147.094C112.474 147.385 112.349 147.755 112.297 148.203C112.245 148.641 112.219 149.078 112.219 149.516V166H106.625ZM126.859 166.25C125.557 166.25 124.562 165.948 123.875 165.344C123.198 164.74 122.734 163.912 122.484 162.859C122.234 161.807 122.109 160.615 122.109 159.281C122.109 157.854 122.25 156.688 122.531 155.781C122.812 154.865 123.292 154.115 123.969 153.531C124.656 152.948 125.599 152.453 126.797 152.047L130.266 150.859V148.453C130.266 147.193 129.854 146.563 129.031 146.563C128.281 146.563 127.906 147.073 127.906 148.094V149.5H122.469C122.458 149.417 122.453 149.313 122.453 149.188C122.453 149.052 122.453 148.901 122.453 148.734C122.453 146.401 123 144.75 124.094 143.781C125.198 142.802 126.943 142.313 129.328 142.313C130.578 142.313 131.698 142.537 132.688 142.984C133.677 143.422 134.458 144.073 135.031 144.938C135.615 145.802 135.906 146.87 135.906 148.141V166H130.344V163.219C130.073 164.198 129.625 164.948 129 165.469C128.375 165.99 127.661 166.25 126.859 166.25ZM129.062 161.906C129.521 161.906 129.833 161.714 130 161.328C130.167 160.943 130.25 160.526 130.25 160.078V153.547C129.479 153.859 128.88 154.255 128.453 154.734C128.026 155.203 127.812 155.896 127.812 156.813V159.828C127.812 161.214 128.229 161.906 129.062 161.906ZM144.375 170.063C143.292 170.063 142.359 170.005 141.578 169.891C140.807 169.787 140.115 169.594 139.5 169.313C138.885 169.031 138.271 168.635 137.656 168.125L139.547 164.891C140.911 165.703 142.276 166.109 143.641 166.109C144.536 166.109 145.203 165.823 145.641 165.25C146.078 164.677 146.297 163.932 146.297 163.016V160.719C145.849 162.323 144.656 163.125 142.719 163.125C141.604 163.125 140.703 162.859 140.016 162.328C139.328 161.797 138.828 161.078 138.516 160.172C138.203 159.266 138.047 158.255 138.047 157.141V148.719C138.047 147.458 138.182 146.349 138.453 145.391C138.724 144.422 139.198 143.667 139.875 143.125C140.552 142.583 141.5 142.313 142.719 142.313C143.75 142.313 144.552 142.573 145.125 143.094C145.708 143.615 146.099 144.318 146.297 145.203V142.563H152V162.656C152 165.313 151.385 167.208 150.156 168.344C148.938 169.49 147.01 170.063 144.375 170.063ZM144.984 158.906C145.859 158.906 146.297 158.115 146.297 156.531V148.563C146.297 148.135 146.172 147.698 145.922 147.25C145.682 146.802 145.349 146.578 144.922 146.578C144.38 146.578 144.042 146.781 143.906 147.188C143.771 147.583 143.703 148.042 143.703 148.563V156.531C143.703 157.094 143.771 157.63 143.906 158.141C144.052 158.651 144.411 158.906 144.984 158.906ZM160.75 166.25C159.083 166.25 157.755 165.938 156.766 165.313C155.776 164.688 155.068 163.787 154.641 162.609C154.214 161.432 154 160.016 154 158.359V148.938C154 146.76 154.625 145.115 155.875 144C157.125 142.875 158.844 142.313 161.031 142.313C165.531 142.313 167.781 144.521 167.781 148.938V150.641C167.781 152.703 167.76 154.089 167.719 154.797H159.594V159.328C159.594 159.745 159.62 160.156 159.672 160.563C159.724 160.958 159.839 161.287 160.016 161.547C160.203 161.807 160.5 161.938 160.906 161.938C161.49 161.938 161.854 161.688 162 161.188C162.146 160.677 162.219 160.016 162.219 159.203V156.953H167.781V158.281C167.781 160.031 167.562 161.5 167.125 162.688C166.698 163.865 165.969 164.755 164.938 165.359C163.917 165.953 162.521 166.25 160.75 166.25ZM159.562 152.016H162.219V148.859C162.219 148.016 162.115 147.412 161.906 147.047C161.698 146.672 161.385 146.484 160.969 146.484C160.521 146.484 160.172 146.662 159.922 147.016C159.682 147.37 159.562 147.984 159.562 148.859V152.016ZM169.812 166V142.563H175.5V145.172C175.771 144.266 176.25 143.557 176.938 143.047C177.625 142.537 178.49 142.281 179.531 142.281V146.953C179.073 146.953 178.526 147.005 177.891 147.109C177.255 147.203 176.698 147.339 176.219 147.516C175.74 147.682 175.5 147.87 175.5 148.078V166H169.812Z" fill="black"/>
<defs>
<clipPath id="clip0_1_28">
<rect width="100" height="106.667" fill="white" transform="matrix(-0.190809 0.981627 0.981627 0.190809 36.7418 0)"/>
</clipPath>
</defs>
</svg>
