<svg width="128" height="139" viewBox="0 0 128 139" fill="none" xmlns="http://www.w3.org/2000/svg">
<g clip-path="url(#clip0_1_186)">
<path d="M52.46 38.1381L48.352 40.3642L49.5882 42.3274C57.377 54.7298 61.1866 66.2586 61.5536 78.8847C56.4998 79.4217 51.3167 78.3871 46.6164 75.8513C40.3798 72.4869 35.5722 66.8726 32.7134 59.6192C30.1979 53.2376 30.469 48.0556 30.7558 42.5686C30.9131 39.5577 31.0771 36.4387 30.7821 32.9306C30.2393 26.4907 25.9366 18.8842 25.8943 18.8081L23.514 14.646L28.4102 15.5632C28.7878 15.635 37.7827 17.3563 49.5625 22.4494C62.0141 27.8316 70.7451 34.5389 75.5039 42.3825C79.3619 48.7463 80.5851 56.1842 79.0094 62.9376C78.7131 64.2113 78.3152 65.46 77.8191 66.6731C75.5618 72.1758 71.3894 76.2294 66.3073 77.891C65.7633 64.8552 61.7332 52.9051 53.6927 40.0962L52.46 38.1381Z" fill="#4BDB71"/>
<path d="M62.7691 85.5207C62.8394 83.1233 62.7982 80.7802 62.6454 78.477C64.0443 78.281 65.4188 77.9666 66.7521 77.5376C66.956 77.4712 67.1592 77.4004 67.3598 77.3277C67.5778 80.1347 67.6432 82.947 67.5557 85.7534L67.4905 88.0071L62.7027 87.7727L62.7691 85.5207Z" fill="#4BDB71"/>
</g>
<path fill-rule="evenodd" clip-rule="evenodd" d="M4 105.446H124C109.677 94.4465 88.115 87.4464 64 87.4464C39.885 87.4464 18.3233 94.4465 4 105.446Z" fill="#B0652C"/>
<path d="M7.29297 132L8.95312 114.813H14.7832L16.4141 132H13.1621L12.918 129.227H10.8477L10.6328 132H7.29297ZM11.0918 126.482H12.6543L11.9023 117.742H11.7461L11.0918 126.482ZM21.3555 134.539C20.6784 134.539 20.0957 134.503 19.6074 134.432C19.1257 134.367 18.6927 134.246 18.3086 134.07C17.9245 133.895 17.5404 133.647 17.1562 133.328L18.3379 131.307C19.1908 131.815 20.0436 132.068 20.8965 132.068C21.4564 132.068 21.873 131.889 22.1465 131.531C22.4199 131.173 22.5566 130.708 22.5566 130.135V128.699C22.2767 129.702 21.5312 130.203 20.3203 130.203C19.6237 130.203 19.0605 130.037 18.6309 129.705C18.2012 129.373 17.8887 128.924 17.6934 128.357C17.498 127.791 17.4004 127.16 17.4004 126.463V121.199C17.4004 120.412 17.485 119.718 17.6543 119.119C17.8236 118.514 18.1198 118.042 18.543 117.703C18.9661 117.365 19.5586 117.195 20.3203 117.195C20.9648 117.195 21.4661 117.358 21.8242 117.684C22.1888 118.009 22.4329 118.449 22.5566 119.002V117.352H26.1211V129.91C26.1211 131.57 25.737 132.755 24.9688 133.465C24.207 134.181 23.0026 134.539 21.3555 134.539ZM21.7363 127.566C22.2832 127.566 22.5566 127.072 22.5566 126.082V121.102C22.5566 120.835 22.4785 120.561 22.3223 120.281C22.1725 120.001 21.9642 119.861 21.6973 119.861C21.3587 119.861 21.1471 119.988 21.0625 120.242C20.9779 120.49 20.9355 120.776 20.9355 121.102V126.082C20.9355 126.434 20.9779 126.769 21.0625 127.088C21.1536 127.407 21.3783 127.566 21.7363 127.566ZM27.4883 132V117.352H31.043V118.982C31.2122 118.416 31.5117 117.973 31.9414 117.654C32.3711 117.335 32.9115 117.176 33.5625 117.176V120.096C33.276 120.096 32.9342 120.128 32.5371 120.193C32.14 120.252 31.7917 120.337 31.4922 120.447C31.1927 120.551 31.043 120.669 31.043 120.799V132H27.4883ZM38.6797 132.156C35.763 132.156 34.3047 130.643 34.3047 127.615V121.736C34.3047 120.356 34.6921 119.256 35.4668 118.436C36.2415 117.609 37.3125 117.195 38.6797 117.195C40.0534 117.195 41.1276 117.609 41.9023 118.436C42.6771 119.256 43.0645 120.356 43.0645 121.736V127.615C43.0645 130.643 41.6029 132.156 38.6797 132.156ZM38.6797 129.461C38.9727 129.461 39.181 129.357 39.3047 129.148C39.4349 128.934 39.5 128.663 39.5 128.338V121.18C39.5 120.327 39.2266 119.9 38.6797 119.9C38.1328 119.9 37.8594 120.327 37.8594 121.18V128.338C37.8594 128.663 37.9212 128.934 38.0449 129.148C38.1751 129.357 38.3867 129.461 38.6797 129.461ZM49.1094 132V114.813H54.3438L55.7891 125.291L57.2246 114.813H62.5078V132H59.3633V119.617L57.3906 132H54.3047L52.2148 119.617V132H49.1094ZM66.6387 132.156C65.8249 132.156 65.2031 131.968 64.7734 131.59C64.3503 131.212 64.0605 130.695 63.9043 130.037C63.748 129.38 63.6699 128.634 63.6699 127.801C63.6699 126.909 63.7578 126.18 63.9336 125.613C64.1094 125.04 64.4089 124.572 64.832 124.207C65.2617 123.843 65.8509 123.533 66.5996 123.279L68.7676 122.537V121.033C68.7676 120.246 68.5104 119.852 67.9961 119.852C67.5273 119.852 67.293 120.171 67.293 120.809V121.688H63.8945C63.888 121.635 63.8848 121.57 63.8848 121.492C63.8848 121.408 63.8848 121.313 63.8848 121.209C63.8848 119.751 64.2266 118.719 64.9102 118.113C65.6003 117.501 66.6908 117.195 68.1816 117.195C68.9629 117.195 69.6628 117.335 70.2812 117.615C70.8997 117.889 71.388 118.296 71.7461 118.836C72.1107 119.376 72.293 120.044 72.293 120.838V132H68.8164V130.262C68.6471 130.874 68.3672 131.343 67.9766 131.668C67.5859 131.994 67.14 132.156 66.6387 132.156ZM68.0156 129.441C68.3021 129.441 68.4974 129.321 68.6016 129.08C68.7057 128.839 68.7578 128.579 68.7578 128.299V124.217C68.276 124.412 67.9017 124.66 67.6348 124.959C67.3678 125.252 67.2344 125.685 67.2344 126.258V128.143C67.2344 129.009 67.4948 129.441 68.0156 129.441ZM73.6406 132V117.352H77.1367V119.217C77.2669 118.657 77.5078 118.182 77.8594 117.791C78.2174 117.394 78.7122 117.195 79.3438 117.195C80.3594 117.195 81.0951 117.508 81.5508 118.133C82.013 118.758 82.2441 119.614 82.2441 120.701V132H78.7969V121.063C78.7969 120.776 78.7383 120.512 78.6211 120.272C78.5039 120.024 78.3021 119.9 78.0156 119.9C77.7487 119.9 77.5501 119.995 77.4199 120.184C77.2962 120.366 77.2181 120.597 77.1855 120.877C77.153 121.15 77.1367 121.424 77.1367 121.697V132H73.6406ZM86.2871 132.156C85.4733 132.156 84.8516 131.968 84.4219 131.59C83.9987 131.212 83.709 130.695 83.5527 130.037C83.3965 129.38 83.3184 128.634 83.3184 127.801C83.3184 126.909 83.4062 126.18 83.582 125.613C83.7578 125.04 84.0573 124.572 84.4805 124.207C84.9102 123.843 85.4993 123.533 86.248 123.279L88.416 122.537V121.033C88.416 120.246 88.1589 119.852 87.6445 119.852C87.1758 119.852 86.9414 120.171 86.9414 120.809V121.688H83.543C83.5365 121.635 83.5332 121.57 83.5332 121.492C83.5332 121.408 83.5332 121.313 83.5332 121.209C83.5332 119.751 83.875 118.719 84.5586 118.113C85.2487 117.501 86.3392 117.195 87.8301 117.195C88.6113 117.195 89.3112 117.335 89.9297 117.615C90.5482 117.889 91.0365 118.296 91.3945 118.836C91.7591 119.376 91.9414 120.044 91.9414 120.838V132H88.4648V130.262C88.2956 130.874 88.0156 131.343 87.625 131.668C87.2344 131.994 86.7884 132.156 86.2871 132.156ZM87.6641 129.441C87.9505 129.441 88.1458 129.321 88.25 129.08C88.3542 128.839 88.4062 128.579 88.4062 128.299V124.217C87.9245 124.412 87.5501 124.66 87.2832 124.959C87.0163 125.252 86.8828 125.685 86.8828 126.258V128.143C86.8828 129.009 87.1432 129.441 87.6641 129.441ZM97.2344 134.539C96.5573 134.539 95.9746 134.503 95.4863 134.432C95.0046 134.367 94.5716 134.246 94.1875 134.07C93.8034 133.895 93.4193 133.647 93.0352 133.328L94.2168 131.307C95.0697 131.815 95.9225 132.068 96.7754 132.068C97.3353 132.068 97.752 131.889 98.0254 131.531C98.2988 131.173 98.4355 130.708 98.4355 130.135V128.699C98.1556 129.702 97.4102 130.203 96.1992 130.203C95.5026 130.203 94.9395 130.037 94.5098 129.705C94.0801 129.373 93.7676 128.924 93.5723 128.357C93.377 127.791 93.2793 127.16 93.2793 126.463V121.199C93.2793 120.412 93.3639 119.718 93.5332 119.119C93.7025 118.514 93.9987 118.042 94.4219 117.703C94.8451 117.365 95.4375 117.195 96.1992 117.195C96.8438 117.195 97.3451 117.358 97.7031 117.684C98.0677 118.009 98.3118 118.449 98.4355 119.002V117.352H102V129.91C102 131.57 101.616 132.755 100.848 133.465C100.086 134.181 98.8815 134.539 97.2344 134.539ZM97.6152 127.566C98.1621 127.566 98.4355 127.072 98.4355 126.082V121.102C98.4355 120.835 98.3574 120.561 98.2012 120.281C98.0514 120.001 97.8431 119.861 97.5762 119.861C97.2376 119.861 97.026 119.988 96.9414 120.242C96.8568 120.49 96.8145 120.776 96.8145 121.102V126.082C96.8145 126.434 96.8568 126.769 96.9414 127.088C97.0326 127.407 97.2572 127.566 97.6152 127.566ZM107.469 132.156C106.427 132.156 105.597 131.961 104.979 131.57C104.36 131.18 103.917 130.617 103.65 129.881C103.383 129.145 103.25 128.26 103.25 127.225V121.336C103.25 119.975 103.641 118.947 104.422 118.25C105.203 117.547 106.277 117.195 107.645 117.195C110.457 117.195 111.863 118.576 111.863 121.336V122.4C111.863 123.69 111.85 124.555 111.824 124.998H106.746V127.83C106.746 128.091 106.762 128.348 106.795 128.602C106.827 128.849 106.899 129.054 107.01 129.217C107.127 129.38 107.312 129.461 107.566 129.461C107.931 129.461 108.159 129.305 108.25 128.992C108.341 128.673 108.387 128.26 108.387 127.752V126.346H111.863V127.176C111.863 128.27 111.727 129.188 111.453 129.93C111.186 130.665 110.73 131.222 110.086 131.6C109.448 131.971 108.576 132.156 107.469 132.156ZM106.727 123.26H108.387V121.287C108.387 120.76 108.322 120.382 108.191 120.154C108.061 119.92 107.866 119.803 107.605 119.803C107.326 119.803 107.107 119.913 106.951 120.135C106.801 120.356 106.727 120.74 106.727 121.287V123.26ZM113.133 132V117.352H116.688V118.982C116.857 118.416 117.156 117.973 117.586 117.654C118.016 117.335 118.556 117.176 119.207 117.176V120.096C118.921 120.096 118.579 120.128 118.182 120.193C117.785 120.252 117.436 120.337 117.137 120.447C116.837 120.551 116.688 120.669 116.688 120.799V132H113.133Z" fill="black"/>
<defs>
<clipPath id="clip0_1_186">
<rect width="72" height="76.8" fill="white" transform="matrix(-0.190809 0.981627 0.981627 0.190809 18.7418 10)"/>
</clipPath>
</defs>
</svg>
