<svg width="128" height="139" viewBox="0 0 128 139" fill="none" xmlns="http://www.w3.org/2000/svg">
<g clip-path="url(#clip0_4_76)">
<path d="M54.7135 44.0116L51.062 45.9904L52.1608 47.7355C59.0842 58.7598 62.4705 69.0077 62.7967 80.2308C58.3044 80.7082 53.6973 79.7885 49.5192 77.5345C43.9756 74.5439 39.7021 69.5534 37.161 63.1059C34.925 57.4334 35.166 52.8272 35.4209 47.9498C35.5607 45.2735 35.7065 42.5011 35.4443 39.3828C34.9618 33.6584 31.1372 26.897 31.0996 26.8295L28.9838 23.1297L33.336 23.945C33.6715 24.0089 41.667 25.5389 52.138 30.0661C63.2061 34.8503 70.967 40.8124 75.197 47.7844C78.6263 53.4411 79.7137 60.0526 78.313 66.0556C78.0497 67.1878 77.696 68.2978 77.2549 69.3761C75.2485 74.2673 71.5397 77.8706 67.0222 79.3476C66.5387 67.7602 62.9564 57.1379 55.8093 45.7521L54.7135 44.0116Z" fill="#4BDB71"/>
<path d="M63.8772 86.1295C63.9396 83.9985 63.903 81.9158 63.7672 79.8685C65.0107 79.6942 66.2324 79.4148 67.4176 79.0334C67.5988 78.9744 67.7795 78.9115 67.9578 78.8468C68.1516 81.342 68.2097 83.8418 68.1319 86.3364L68.0739 88.3397L63.8182 88.1313L63.8772 86.1295Z" fill="#4BDB71"/>
</g>
<path fill-rule="evenodd" clip-rule="evenodd" d="M14 105.446H114C102.064 94.4465 84.0958 87.4464 64 87.4464C43.9042 87.4464 25.936 94.4465 14 105.446Z" fill="#B0652C"/>
<path d="M19.2344 128L20.5625 114.25H25.2266L26.5312 128H23.9297L23.7344 125.781H22.0781L21.9062 128H19.2344ZM22.2734 123.586H23.5234L22.9219 116.594H22.7969L22.2734 123.586ZM30.4844 130.031C29.9427 130.031 29.4766 130.003 29.0859 129.945C28.7005 129.893 28.3542 129.797 28.0469 129.656C27.7396 129.516 27.4323 129.318 27.125 129.063L28.0703 127.445C28.7526 127.852 29.4349 128.055 30.1172 128.055C30.5651 128.055 30.8984 127.912 31.1172 127.625C31.3359 127.339 31.4453 126.966 31.4453 126.508V125.359C31.2214 126.162 30.625 126.563 29.6562 126.563C29.099 126.563 28.6484 126.43 28.3047 126.164C27.9609 125.898 27.7109 125.539 27.5547 125.086C27.3984 124.633 27.3203 124.128 27.3203 123.57V119.359C27.3203 118.729 27.388 118.175 27.5234 117.695C27.6589 117.211 27.8958 116.833 28.2344 116.563C28.5729 116.292 29.0469 116.156 29.6562 116.156C30.1719 116.156 30.5729 116.287 30.8594 116.547C31.151 116.807 31.3464 117.159 31.4453 117.602V116.281H34.2969V126.328C34.2969 127.656 33.9896 128.604 33.375 129.172C32.7656 129.745 31.8021 130.031 30.4844 130.031ZM30.7891 124.453C31.2266 124.453 31.4453 124.057 31.4453 123.266V119.281C31.4453 119.068 31.3828 118.849 31.2578 118.625C31.138 118.401 30.9714 118.289 30.7578 118.289C30.487 118.289 30.3177 118.391 30.25 118.594C30.1823 118.792 30.1484 119.021 30.1484 119.281V123.266C30.1484 123.547 30.1823 123.815 30.25 124.07C30.3229 124.326 30.5026 124.453 30.7891 124.453ZM35.3906 128V116.281H38.2344V117.586C38.3698 117.133 38.6094 116.779 38.9531 116.523C39.2969 116.268 39.7292 116.141 40.25 116.141V118.477C40.0208 118.477 39.7474 118.503 39.4297 118.555C39.112 118.602 38.8333 118.669 38.5938 118.758C38.3542 118.841 38.2344 118.935 38.2344 119.039V128H35.3906ZM44.3438 128.125C42.0104 128.125 40.8438 126.914 40.8438 124.492V119.789C40.8438 118.685 41.1536 117.805 41.7734 117.148C42.3932 116.487 43.25 116.156 44.3438 116.156C45.4427 116.156 46.3021 116.487 46.9219 117.148C47.5417 117.805 47.8516 118.685 47.8516 119.789V124.492C47.8516 126.914 46.6823 128.125 44.3438 128.125ZM44.3438 125.969C44.5781 125.969 44.7448 125.885 44.8438 125.719C44.9479 125.547 45 125.331 45 125.07V119.344C45 118.662 44.7812 118.32 44.3438 118.32C43.9062 118.32 43.6875 118.662 43.6875 119.344V125.07C43.6875 125.331 43.737 125.547 43.8359 125.719C43.9401 125.885 44.1094 125.969 44.3438 125.969ZM52.6875 128V114.25H56.875L58.0312 122.633L59.1797 114.25H63.4062V128H60.8906V118.094L59.3125 128H56.8438L55.1719 118.094V128H52.6875ZM66.7109 128.125C66.0599 128.125 65.5625 127.974 65.2188 127.672C64.8802 127.37 64.6484 126.956 64.5234 126.43C64.3984 125.904 64.3359 125.307 64.3359 124.641C64.3359 123.927 64.4062 123.344 64.5469 122.891C64.6875 122.432 64.9271 122.057 65.2656 121.766C65.6094 121.474 66.0807 121.227 66.6797 121.023L68.4141 120.43V119.227C68.4141 118.596 68.2083 118.281 67.7969 118.281C67.4219 118.281 67.2344 118.537 67.2344 119.047V119.75H64.5156C64.5104 119.708 64.5078 119.656 64.5078 119.594C64.5078 119.526 64.5078 119.451 64.5078 119.367C64.5078 118.201 64.7812 117.375 65.3281 116.891C65.8802 116.401 66.7526 116.156 67.9453 116.156C68.5703 116.156 69.1302 116.268 69.625 116.492C70.1198 116.711 70.5104 117.037 70.7969 117.469C71.0885 117.901 71.2344 118.435 71.2344 119.07V128H68.4531V126.609C68.3177 127.099 68.0938 127.474 67.7812 127.734C67.4688 127.995 67.112 128.125 66.7109 128.125ZM67.8125 125.953C68.0417 125.953 68.1979 125.857 68.2812 125.664C68.3646 125.471 68.4062 125.263 68.4062 125.039V121.773C68.0208 121.93 67.7214 122.128 67.5078 122.367C67.2943 122.602 67.1875 122.948 67.1875 123.406V124.914C67.1875 125.607 67.3958 125.953 67.8125 125.953ZM72.3125 128V116.281H75.1094V117.773C75.2135 117.326 75.4062 116.945 75.6875 116.633C75.974 116.315 76.3698 116.156 76.875 116.156C77.6875 116.156 78.276 116.406 78.6406 116.906C79.0104 117.406 79.1953 118.091 79.1953 118.961V128H76.4375V119.25C76.4375 119.021 76.3906 118.81 76.2969 118.617C76.2031 118.419 76.0417 118.32 75.8125 118.32C75.599 118.32 75.4401 118.396 75.3359 118.547C75.237 118.693 75.1745 118.878 75.1484 119.102C75.1224 119.32 75.1094 119.539 75.1094 119.758V128H72.3125ZM82.4297 128.125C81.7786 128.125 81.2812 127.974 80.9375 127.672C80.599 127.37 80.3672 126.956 80.2422 126.43C80.1172 125.904 80.0547 125.307 80.0547 124.641C80.0547 123.927 80.125 123.344 80.2656 122.891C80.4062 122.432 80.6458 122.057 80.9844 121.766C81.3281 121.474 81.7995 121.227 82.3984 121.023L84.1328 120.43V119.227C84.1328 118.596 83.9271 118.281 83.5156 118.281C83.1406 118.281 82.9531 118.537 82.9531 119.047V119.75H80.2344C80.2292 119.708 80.2266 119.656 80.2266 119.594C80.2266 119.526 80.2266 119.451 80.2266 119.367C80.2266 118.201 80.5 117.375 81.0469 116.891C81.599 116.401 82.4714 116.156 83.6641 116.156C84.2891 116.156 84.849 116.268 85.3438 116.492C85.8385 116.711 86.2292 117.037 86.5156 117.469C86.8073 117.901 86.9531 118.435 86.9531 119.07V128H84.1719V126.609C84.0365 127.099 83.8125 127.474 83.5 127.734C83.1875 127.995 82.8307 128.125 82.4297 128.125ZM83.5312 125.953C83.7604 125.953 83.9167 125.857 84 125.664C84.0833 125.471 84.125 125.263 84.125 125.039V121.773C83.7396 121.93 83.4401 122.128 83.2266 122.367C83.013 122.602 82.9062 122.948 82.9062 123.406V124.914C82.9062 125.607 83.1146 125.953 83.5312 125.953ZM91.1875 130.031C90.6458 130.031 90.1797 130.003 89.7891 129.945C89.4036 129.893 89.0573 129.797 88.75 129.656C88.4427 129.516 88.1354 129.318 87.8281 129.063L88.7734 127.445C89.4557 127.852 90.138 128.055 90.8203 128.055C91.2682 128.055 91.6016 127.912 91.8203 127.625C92.0391 127.339 92.1484 126.966 92.1484 126.508V125.359C91.9245 126.162 91.3281 126.563 90.3594 126.563C89.8021 126.563 89.3516 126.43 89.0078 126.164C88.6641 125.898 88.4141 125.539 88.2578 125.086C88.1016 124.633 88.0234 124.128 88.0234 123.57V119.359C88.0234 118.729 88.0911 118.175 88.2266 117.695C88.362 117.211 88.599 116.833 88.9375 116.563C89.276 116.292 89.75 116.156 90.3594 116.156C90.875 116.156 91.276 116.287 91.5625 116.547C91.8542 116.807 92.0495 117.159 92.1484 117.602V116.281H95V126.328C95 127.656 94.6927 128.604 94.0781 129.172C93.4688 129.745 92.5052 130.031 91.1875 130.031ZM91.4922 124.453C91.9297 124.453 92.1484 124.057 92.1484 123.266V119.281C92.1484 119.068 92.0859 118.849 91.9609 118.625C91.8411 118.401 91.6745 118.289 91.4609 118.289C91.1901 118.289 91.0208 118.391 90.9531 118.594C90.8854 118.792 90.8516 119.021 90.8516 119.281V123.266C90.8516 123.547 90.8854 123.815 90.9531 124.07C91.026 124.326 91.2057 124.453 91.4922 124.453ZM99.375 128.125C98.5417 128.125 97.8776 127.969 97.3828 127.656C96.888 127.344 96.5339 126.893 96.3203 126.305C96.1068 125.716 96 125.008 96 124.18V119.469C96 118.38 96.3125 117.557 96.9375 117C97.5625 116.438 98.4219 116.156 99.5156 116.156C101.766 116.156 102.891 117.26 102.891 119.469V120.32C102.891 121.352 102.88 122.044 102.859 122.398H98.7969V124.664C98.7969 124.872 98.8099 125.078 98.8359 125.281C98.862 125.479 98.9193 125.643 99.0078 125.773C99.1016 125.904 99.25 125.969 99.4531 125.969C99.7448 125.969 99.9271 125.844 100 125.594C100.073 125.339 100.109 125.008 100.109 124.602V123.477H102.891V124.141C102.891 125.016 102.781 125.75 102.562 126.344C102.349 126.932 101.984 127.378 101.469 127.68C100.958 127.977 100.26 128.125 99.375 128.125ZM98.7812 121.008H100.109V119.43C100.109 119.008 100.057 118.706 99.9531 118.523C99.849 118.336 99.6927 118.242 99.4844 118.242C99.2604 118.242 99.0859 118.331 98.9609 118.508C98.8411 118.685 98.7812 118.992 98.7812 119.43V121.008ZM103.906 128V116.281H106.75V117.586C106.885 117.133 107.125 116.779 107.469 116.523C107.812 116.268 108.245 116.141 108.766 116.141V118.477C108.536 118.477 108.263 118.503 107.945 118.555C107.628 118.602 107.349 118.669 107.109 118.758C106.87 118.841 106.75 118.935 106.75 119.039V128H103.906Z" fill="black"/>
<defs>
<clipPath id="clip0_4_76">
<rect width="64" height="68.2667" fill="white" transform="matrix(-0.190809 0.981627 0.981627 0.190809 24.7418 19)"/>
</clipPath>
</defs>
</svg>
