<svg width="223" height="120" viewBox="0 0 223 120" fill="none" xmlns="http://www.w3.org/2000/svg">
<path d="M9.30682 105.818V116H8.11364L2.56534 108.006H2.46591V116H1.23295V105.818H2.42614L7.99432 113.832H8.09375V105.818H9.30682ZM14.8166 116.159C14.0808 116.159 13.4461 115.997 12.9125 115.672C12.3822 115.344 11.9728 114.886 11.6845 114.3C11.3994 113.71 11.2569 113.024 11.2569 112.241C11.2569 111.459 11.3994 110.77 11.6845 110.173C11.9728 109.573 12.3739 109.106 12.8876 108.771C13.4047 108.433 14.0079 108.264 14.6973 108.264C15.095 108.264 15.4877 108.33 15.8755 108.463C16.2633 108.596 16.6163 108.811 16.9345 109.109C17.2527 109.404 17.5062 109.795 17.6951 110.283C17.8841 110.77 17.9785 111.37 17.9785 112.082V112.58H12.0922V111.565H16.7853C16.7853 111.134 16.6992 110.75 16.5268 110.412C16.3578 110.074 16.1158 109.807 15.801 109.612C15.4894 109.416 15.1215 109.318 14.6973 109.318C14.2299 109.318 13.8256 109.434 13.4842 109.666C13.1461 109.895 12.8859 110.193 12.7037 110.561C12.5214 110.929 12.4302 111.323 12.4302 111.744V112.42C12.4302 112.997 12.5297 113.486 12.7285 113.887C12.9307 114.285 13.2108 114.588 13.5687 114.797C13.9267 115.002 14.3426 115.105 14.8166 115.105C15.1248 115.105 15.4032 115.062 15.6518 114.976C15.9037 114.886 16.1208 114.754 16.3031 114.578C16.4854 114.399 16.6262 114.177 16.7257 113.912L17.8592 114.23C17.7399 114.615 17.5394 114.953 17.2576 115.244C16.9759 115.533 16.6279 115.758 16.2136 115.92C15.7993 116.08 15.3336 116.159 14.8166 116.159ZM20.9366 111.406V116H19.7633V108.364H20.8968V109.557H20.9963C21.1752 109.169 21.447 108.857 21.8116 108.622C22.1762 108.384 22.6468 108.264 23.2235 108.264C23.7406 108.264 24.193 108.37 24.5808 108.582C24.9686 108.791 25.2702 109.109 25.4856 109.537C25.7011 109.961 25.8088 110.498 25.8088 111.148V116H24.6355V111.227C24.6355 110.627 24.4797 110.16 24.1681 109.825C23.8566 109.487 23.429 109.318 22.8855 109.318C22.5109 109.318 22.1762 109.399 21.8812 109.562C21.5895 109.724 21.3592 109.961 21.1902 110.273C21.0211 110.584 20.9366 110.962 20.9366 111.406ZM29.1261 111.406V116H27.9528V105.818H29.1261V109.557H29.2255C29.4045 109.162 29.6729 108.849 30.0309 108.617C30.3922 108.382 30.8728 108.264 31.4727 108.264C31.993 108.264 32.4487 108.369 32.8398 108.577C33.2309 108.783 33.5342 109.099 33.7496 109.527C33.9684 109.951 34.0778 110.491 34.0778 111.148V116H32.9045V111.227C32.9045 110.621 32.747 110.152 32.4322 109.82C32.1206 109.486 31.6881 109.318 31.1346 109.318C30.7501 109.318 30.4054 109.399 30.1005 109.562C29.7989 109.724 29.5603 109.961 29.3846 110.273C29.2122 110.584 29.1261 110.962 29.1261 111.406ZM41.0368 112.878V108.364H42.21V116H41.0368V114.707H40.9572C40.7782 115.095 40.4998 115.425 40.122 115.697C39.7441 115.965 39.2669 116.099 38.6902 116.099C38.2129 116.099 37.7886 115.995 37.4174 115.786C37.0462 115.574 36.7546 115.256 36.5424 114.832C36.3303 114.404 36.2243 113.866 36.2243 113.216V108.364H37.3975V113.136C37.3975 113.693 37.5533 114.137 37.8649 114.469C38.1797 114.8 38.5808 114.966 39.068 114.966C39.3597 114.966 39.6563 114.891 39.9579 114.742C40.2628 114.593 40.5181 114.364 40.7235 114.056C40.9324 113.748 41.0368 113.355 41.0368 112.878ZM44.359 116V108.364H45.4925V109.557H45.592C45.7511 109.149 46.0079 108.833 46.3626 108.607C46.7172 108.379 47.1431 108.264 47.6403 108.264C48.1441 108.264 48.5633 108.379 48.8981 108.607C49.2362 108.833 49.4996 109.149 49.6886 109.557H49.7681C49.9637 109.162 50.257 108.849 50.6481 108.617C51.0392 108.382 51.5082 108.264 52.055 108.264C52.7378 108.264 53.2963 108.478 53.7305 108.906C54.1647 109.33 54.3817 109.991 54.3817 110.889V116H53.2085V110.889C53.2085 110.326 53.0543 109.923 52.7461 109.681C52.4379 109.439 52.0749 109.318 51.6573 109.318C51.1204 109.318 50.7044 109.481 50.4094 109.805C50.1145 110.127 49.967 110.535 49.967 111.028V116H48.7738V110.77C48.7738 110.336 48.6329 109.986 48.3512 109.721C48.0695 109.452 47.7066 109.318 47.2624 109.318C46.9575 109.318 46.6725 109.399 46.4073 109.562C46.1455 109.724 45.9334 109.95 45.771 110.238C45.6119 110.523 45.5323 110.853 45.5323 111.227V116H44.359ZM62.7116 116.179C62.2277 116.179 61.7886 116.088 61.3942 115.906C60.9998 115.72 60.6866 115.453 60.4545 115.105C60.2225 114.754 60.1065 114.33 60.1065 113.832C60.1065 113.395 60.1927 113.04 60.3651 112.768C60.5374 112.493 60.7678 112.278 61.0561 112.122C61.3445 111.966 61.6626 111.85 62.0107 111.774C62.362 111.695 62.715 111.632 63.0696 111.585C63.5336 111.526 63.9098 111.481 64.1982 111.451C64.4898 111.418 64.7019 111.363 64.8345 111.287C64.9704 111.211 65.0384 111.078 65.0384 110.889V110.849C65.0384 110.359 64.9041 109.978 64.6357 109.706C64.3705 109.434 63.9678 109.298 63.4276 109.298C62.8674 109.298 62.4283 109.421 62.1101 109.666C61.7919 109.911 61.5682 110.173 61.4389 110.452L60.3253 110.054C60.5241 109.59 60.7893 109.229 61.1207 108.97C61.4555 108.708 61.8201 108.526 62.2145 108.423C62.6122 108.317 63.0033 108.264 63.3878 108.264C63.633 108.264 63.9148 108.294 64.233 108.354C64.5545 108.41 64.8643 108.528 65.1626 108.707C65.4643 108.886 65.7145 109.156 65.9134 109.517C66.1122 109.878 66.2116 110.362 66.2116 110.969V116H65.0384V114.966H64.9787C64.8991 115.132 64.7666 115.309 64.581 115.498C64.3954 115.687 64.1484 115.848 63.8402 115.98C63.532 116.113 63.1558 116.179 62.7116 116.179ZM62.8906 115.125C63.3546 115.125 63.7457 115.034 64.0639 114.852C64.3854 114.669 64.6274 114.434 64.7898 114.146C64.9555 113.857 65.0384 113.554 65.0384 113.236V112.162C64.9886 112.222 64.8793 112.276 64.7102 112.326C64.5445 112.372 64.3523 112.414 64.1335 112.45C63.9181 112.483 63.7076 112.513 63.5021 112.54C63.3 112.563 63.1359 112.583 63.0099 112.599C62.705 112.639 62.42 112.704 62.1548 112.793C61.893 112.879 61.6809 113.01 61.5185 113.186C61.3594 113.358 61.2798 113.594 61.2798 113.892C61.2798 114.3 61.4306 114.608 61.7322 114.817C62.0372 115.022 62.4233 115.125 62.8906 115.125ZM71.4355 119.023C70.8688 119.023 70.3816 118.95 69.9739 118.804C69.5662 118.661 69.2265 118.473 68.9547 118.237C68.6863 118.005 68.4725 117.757 68.3134 117.491L69.248 116.835C69.3541 116.974 69.4883 117.134 69.6507 117.312C69.8132 117.495 70.0352 117.652 70.3169 117.785C70.602 117.921 70.9748 117.989 71.4355 117.989C72.052 117.989 72.5608 117.839 72.9618 117.541C73.3629 117.243 73.5634 116.776 73.5634 116.139V114.588H73.464C73.3778 114.727 73.2551 114.9 73.0961 115.105C72.9403 115.307 72.7149 115.488 72.4199 115.647C72.1283 115.803 71.7338 115.881 71.2367 115.881C70.6202 115.881 70.0667 115.735 69.5762 115.443C69.089 115.152 68.7028 114.727 68.4178 114.17C68.1361 113.614 67.9952 112.937 67.9952 112.142C67.9952 111.36 68.1328 110.679 68.4078 110.099C68.6829 109.515 69.0658 109.065 69.5563 108.746C70.0468 108.425 70.6136 108.264 71.2566 108.264C71.7537 108.264 72.1481 108.347 72.4398 108.513C72.7348 108.675 72.9602 108.861 73.1159 109.07C73.275 109.275 73.3977 109.444 73.4838 109.577H73.6032V108.364H74.7367V116.219C74.7367 116.875 74.5875 117.409 74.2892 117.82C73.9943 118.234 73.5965 118.537 73.0961 118.729C72.5989 118.925 72.0454 119.023 71.4355 119.023ZM71.3958 114.827C71.8664 114.827 72.2641 114.719 72.589 114.504C72.9138 114.288 73.1607 113.978 73.3297 113.574C73.4988 113.17 73.5833 112.686 73.5833 112.122C73.5833 111.572 73.5004 111.086 73.3347 110.665C73.169 110.245 72.9237 109.915 72.5989 109.676C72.2741 109.437 71.873 109.318 71.3958 109.318C70.8986 109.318 70.4843 109.444 70.1529 109.696C69.8248 109.948 69.5778 110.286 69.4121 110.71C69.2497 111.134 69.1685 111.605 69.1685 112.122C69.1685 112.652 69.2514 113.121 69.4171 113.529C69.5861 113.933 69.8347 114.252 70.1628 114.484C70.4943 114.712 70.9052 114.827 71.3958 114.827ZM76.8844 116V108.364H78.0179V109.517H78.0975C78.2367 109.139 78.4886 108.833 78.8532 108.597C79.2177 108.362 79.6287 108.244 80.0861 108.244C80.1723 108.244 80.28 108.246 80.4093 108.249C80.5385 108.253 80.6363 108.258 80.7026 108.264V109.457C80.6628 109.447 80.5717 109.433 80.4292 109.413C80.29 109.389 80.1425 109.378 79.9867 109.378C79.6155 109.378 79.284 109.456 78.9924 109.612C78.704 109.764 78.4753 109.976 78.3063 110.248C78.1406 110.516 78.0577 110.823 78.0577 111.168V116H76.8844ZM82.0934 116V108.364H83.2667V116H82.0934ZM82.69 107.091C82.4613 107.091 82.2641 107.013 82.0984 106.857C81.936 106.701 81.8548 106.514 81.8548 106.295C81.8548 106.077 81.936 105.889 82.0984 105.734C82.2641 105.578 82.4613 105.5 82.69 105.5C82.9187 105.5 83.1142 105.578 83.2766 105.734C83.4424 105.889 83.5252 106.077 83.5252 106.295C83.5252 106.514 83.4424 106.701 83.2766 106.857C83.1142 107.013 82.9187 107.091 82.69 107.091ZM88.5179 116.159C87.802 116.159 87.1855 115.99 86.6685 115.652C86.1515 115.314 85.7537 114.848 85.4753 114.255C85.1969 113.662 85.0577 112.984 85.0577 112.222C85.0577 111.446 85.2002 110.762 85.4853 110.168C85.7736 109.572 86.1747 109.106 86.6884 108.771C87.2054 108.433 87.8087 108.264 88.498 108.264C89.035 108.264 89.5189 108.364 89.9498 108.562C90.3806 108.761 90.7336 109.04 91.0087 109.398C91.2838 109.756 91.4545 110.173 91.5208 110.651H90.3475C90.258 110.303 90.0591 109.994 89.7509 109.726C89.446 109.454 89.035 109.318 88.5179 109.318C88.0605 109.318 87.6595 109.437 87.3148 109.676C86.9734 109.911 86.7066 110.245 86.5144 110.675C86.3255 111.103 86.231 111.605 86.231 112.182C86.231 112.772 86.3238 113.286 86.5094 113.723C86.6983 114.161 86.9635 114.5 87.3049 114.742C87.6496 114.984 88.0539 115.105 88.5179 115.105C88.8229 115.105 89.0996 115.052 89.3482 114.946C89.5968 114.84 89.8072 114.688 89.9796 114.489C90.1519 114.29 90.2746 114.051 90.3475 113.773H91.5208C91.4545 114.223 91.2904 114.629 91.0286 114.991C90.7701 115.349 90.427 115.634 89.9995 115.846C89.5752 116.055 89.0814 116.159 88.5179 116.159ZM98.0485 112.878V108.364H99.2218V116H98.0485V114.707H97.9689C97.79 115.095 97.5115 115.425 97.1337 115.697C96.7559 115.965 96.2786 116.099 95.7019 116.099C95.2246 116.099 94.8004 115.995 94.4292 115.786C94.0579 115.574 93.7663 115.256 93.5542 114.832C93.342 114.404 93.236 113.866 93.236 113.216V108.364H94.4093V113.136C94.4093 113.693 94.565 114.137 94.8766 114.469C95.1915 114.8 95.5925 114.966 96.0797 114.966C96.3714 114.966 96.668 114.891 96.9696 114.742C97.2746 114.593 97.5298 114.364 97.7353 114.056C97.9441 113.748 98.0485 113.355 98.0485 112.878ZM102.544 105.818V116H101.371V105.818H102.544ZM108.014 108.364V109.358H104.057V108.364H108.014ZM105.21 106.534H106.383V113.812C106.383 114.144 106.431 114.393 106.528 114.558C106.627 114.721 106.753 114.83 106.905 114.886C107.061 114.939 107.225 114.966 107.398 114.966C107.527 114.966 107.633 114.959 107.716 114.946C107.799 114.929 107.865 114.916 107.915 114.906L108.153 115.96C108.074 115.99 107.963 116.02 107.82 116.05C107.678 116.083 107.497 116.099 107.278 116.099C106.947 116.099 106.622 116.028 106.304 115.886C105.989 115.743 105.727 115.526 105.518 115.234C105.313 114.943 105.21 114.575 105.21 114.131V106.534ZM112.799 116.159C112.11 116.159 111.505 115.995 110.985 115.667C110.468 115.339 110.063 114.88 109.771 114.29C109.483 113.7 109.339 113.01 109.339 112.222C109.339 111.426 109.483 110.732 109.771 110.138C110.063 109.545 110.468 109.085 110.985 108.756C111.505 108.428 112.11 108.264 112.799 108.264C113.489 108.264 114.092 108.428 114.609 108.756C115.129 109.085 115.534 109.545 115.822 110.138C116.114 110.732 116.259 111.426 116.259 112.222C116.259 113.01 116.114 113.7 115.822 114.29C115.534 114.88 115.129 115.339 114.609 115.667C114.092 115.995 113.489 116.159 112.799 116.159ZM112.799 115.105C113.323 115.105 113.754 114.971 114.092 114.702C114.43 114.434 114.68 114.081 114.843 113.643C115.005 113.206 115.086 112.732 115.086 112.222C115.086 111.711 115.005 111.236 114.843 110.795C114.68 110.354 114.43 109.998 114.092 109.726C113.754 109.454 113.323 109.318 112.799 109.318C112.276 109.318 111.845 109.454 111.507 109.726C111.169 109.998 110.918 110.354 110.756 110.795C110.593 111.236 110.512 111.711 110.512 112.222C110.512 112.732 110.593 113.206 110.756 113.643C110.918 114.081 111.169 114.434 111.507 114.702C111.845 114.971 112.276 115.105 112.799 115.105ZM118.05 116V108.364H119.184V109.517H119.263C119.403 109.139 119.655 108.833 120.019 108.597C120.384 108.362 120.795 108.244 121.252 108.244C121.338 108.244 121.446 108.246 121.575 108.249C121.705 108.253 121.802 108.258 121.869 108.264V109.457C121.829 109.447 121.738 109.433 121.595 109.413C121.456 109.389 121.308 109.378 121.153 109.378C120.781 109.378 120.45 109.456 120.158 109.612C119.87 109.764 119.641 109.976 119.472 110.248C119.307 110.516 119.224 110.823 119.224 111.168V116H118.05ZM130.597 108.364V109.358H126.481V108.364H130.597ZM127.714 116V107.31C127.714 106.872 127.817 106.508 128.022 106.216C128.228 105.924 128.494 105.705 128.823 105.56C129.151 105.414 129.497 105.341 129.862 105.341C130.15 105.341 130.385 105.364 130.568 105.411C130.75 105.457 130.886 105.5 130.975 105.54L130.637 106.554C130.578 106.534 130.495 106.509 130.389 106.479C130.286 106.45 130.15 106.435 129.981 106.435C129.593 106.435 129.313 106.532 129.141 106.728C128.972 106.924 128.887 107.21 128.887 107.588V116H127.714ZM135.03 116.159C134.34 116.159 133.735 115.995 133.215 115.667C132.698 115.339 132.294 114.88 132.002 114.29C131.714 113.7 131.569 113.01 131.569 112.222C131.569 111.426 131.714 110.732 132.002 110.138C132.294 109.545 132.698 109.085 133.215 108.756C133.735 108.428 134.34 108.264 135.03 108.264C135.719 108.264 136.322 108.428 136.839 108.756C137.36 109.085 137.764 109.545 138.052 110.138C138.344 110.732 138.49 111.426 138.49 112.222C138.49 113.01 138.344 113.7 138.052 114.29C137.764 114.88 137.36 115.339 136.839 115.667C136.322 115.995 135.719 116.159 135.03 116.159ZM135.03 115.105C135.553 115.105 135.984 114.971 136.322 114.702C136.66 114.434 136.911 114.081 137.073 113.643C137.235 113.206 137.317 112.732 137.317 112.222C137.317 111.711 137.235 111.236 137.073 110.795C136.911 110.354 136.66 109.998 136.322 109.726C135.984 109.454 135.553 109.318 135.03 109.318C134.506 109.318 134.075 109.454 133.737 109.726C133.399 109.998 133.149 110.354 132.986 110.795C132.824 111.236 132.743 111.711 132.743 112.222C132.743 112.732 132.824 113.206 132.986 113.643C133.149 114.081 133.399 114.434 133.737 114.702C134.075 114.971 134.506 115.105 135.03 115.105ZM140.281 116V108.364H141.454V116H140.281ZM140.877 107.091C140.649 107.091 140.452 107.013 140.286 106.857C140.123 106.701 140.042 106.514 140.042 106.295C140.042 106.077 140.123 105.889 140.286 105.734C140.452 105.578 140.649 105.5 140.877 105.5C141.106 105.5 141.302 105.578 141.464 105.734C141.63 105.889 141.713 106.077 141.713 106.295C141.713 106.514 141.63 106.701 141.464 106.857C141.302 107.013 141.106 107.091 140.877 107.091ZM150.742 116.159C150.007 116.159 149.372 115.997 148.838 115.672C148.308 115.344 147.899 114.886 147.61 114.3C147.325 113.71 147.183 113.024 147.183 112.241C147.183 111.459 147.325 110.77 147.61 110.173C147.899 109.573 148.3 109.106 148.813 108.771C149.33 108.433 149.934 108.264 150.623 108.264C151.021 108.264 151.414 108.33 151.801 108.463C152.189 108.596 152.542 108.811 152.86 109.109C153.178 109.404 153.432 109.795 153.621 110.283C153.81 110.77 153.904 111.37 153.904 112.082V112.58H148.018V111.565H152.711C152.711 111.134 152.625 110.75 152.453 110.412C152.284 110.074 152.042 109.807 151.727 109.612C151.415 109.416 151.047 109.318 150.623 109.318C150.156 109.318 149.751 109.434 149.41 109.666C149.072 109.895 148.812 110.193 148.629 110.561C148.447 110.929 148.356 111.323 148.356 111.744V112.42C148.356 112.997 148.455 113.486 148.654 113.887C148.856 114.285 149.137 114.588 149.494 114.797C149.852 115.002 150.268 115.105 150.742 115.105C151.051 115.105 151.329 115.062 151.578 114.976C151.829 114.886 152.047 114.754 152.229 114.578C152.411 114.399 152.552 114.177 152.651 113.912L153.785 114.23C153.666 114.615 153.465 114.953 153.183 115.244C152.902 115.533 152.554 115.758 152.139 115.92C151.725 116.08 151.259 116.159 150.742 116.159ZM156.862 111.406V116H155.689V108.364H156.823V109.557H156.922C157.101 109.169 157.373 108.857 157.737 108.622C158.102 108.384 158.573 108.264 159.149 108.264C159.666 108.264 160.119 108.37 160.507 108.582C160.894 108.791 161.196 109.109 161.411 109.537C161.627 109.961 161.735 110.498 161.735 111.148V116H160.561V111.227C160.561 110.627 160.405 110.16 160.094 109.825C159.782 109.487 159.355 109.318 158.811 109.318C158.437 109.318 158.102 109.399 157.807 109.562C157.515 109.724 157.285 109.961 157.116 110.273C156.947 110.584 156.862 110.962 156.862 111.406ZM166.981 116.159C166.265 116.159 165.648 115.99 165.131 115.652C164.614 115.314 164.217 114.848 163.938 114.255C163.66 113.662 163.521 112.984 163.521 112.222C163.521 111.446 163.663 110.762 163.948 110.168C164.237 109.572 164.638 109.106 165.151 108.771C165.668 108.433 166.272 108.264 166.961 108.264C167.498 108.264 167.982 108.364 168.413 108.562C168.844 108.761 169.196 109.04 169.472 109.398C169.747 109.756 169.917 110.173 169.984 110.651H168.81C168.721 110.303 168.522 109.994 168.214 109.726C167.909 109.454 167.498 109.318 166.981 109.318C166.523 109.318 166.122 109.437 165.778 109.676C165.436 109.911 165.17 110.245 164.977 110.675C164.788 111.103 164.694 111.605 164.694 112.182C164.694 112.772 164.787 113.286 164.972 113.723C165.161 114.161 165.426 114.5 165.768 114.742C166.112 114.984 166.517 115.105 166.981 115.105C167.286 115.105 167.562 115.052 167.811 114.946C168.06 114.84 168.27 114.688 168.442 114.489C168.615 114.29 168.737 114.051 168.81 113.773H169.984C169.917 114.223 169.753 114.629 169.491 114.991C169.233 115.349 168.89 115.634 168.462 115.846C168.038 116.055 167.544 116.159 166.981 116.159ZM174.801 116.159C174.112 116.159 173.507 115.995 172.987 115.667C172.469 115.339 172.065 114.88 171.773 114.29C171.485 113.7 171.341 113.01 171.341 112.222C171.341 111.426 171.485 110.732 171.773 110.138C172.065 109.545 172.469 109.085 172.987 108.756C173.507 108.428 174.112 108.264 174.801 108.264C175.491 108.264 176.094 108.428 176.611 108.756C177.131 109.085 177.536 109.545 177.824 110.138C178.116 110.732 178.261 111.426 178.261 112.222C178.261 113.01 178.116 113.7 177.824 114.29C177.536 114.88 177.131 115.339 176.611 115.667C176.094 115.995 175.491 116.159 174.801 116.159ZM174.801 115.105C175.325 115.105 175.756 114.971 176.094 114.702C176.432 114.434 176.682 114.081 176.844 113.643C177.007 113.206 177.088 112.732 177.088 112.222C177.088 111.711 177.007 111.236 176.844 110.795C176.682 110.354 176.432 109.998 176.094 109.726C175.756 109.454 175.325 109.318 174.801 109.318C174.277 109.318 173.847 109.454 173.509 109.726C173.17 109.998 172.92 110.354 172.758 110.795C172.595 111.236 172.514 111.711 172.514 112.222C172.514 112.732 172.595 113.206 172.758 113.643C172.92 114.081 173.17 114.434 173.509 114.702C173.847 114.971 174.277 115.105 174.801 115.105ZM181.226 111.406V116H180.052V108.364H181.186V109.557H181.285C181.464 109.169 181.736 108.857 182.101 108.622C182.465 108.384 182.936 108.264 183.513 108.264C184.03 108.264 184.482 108.37 184.87 108.582C185.258 108.791 185.559 109.109 185.775 109.537C185.99 109.961 186.098 110.498 186.098 111.148V116H184.925V111.227C184.925 110.627 184.769 110.16 184.457 109.825C184.146 109.487 183.718 109.318 183.175 109.318C182.8 109.318 182.465 109.399 182.17 109.562C181.879 109.724 181.648 109.961 181.479 110.273C181.31 110.584 181.226 110.962 181.226 111.406ZM191.563 108.364V109.358H187.605V108.364H191.563ZM188.759 106.534H189.932V113.812C189.932 114.144 189.98 114.393 190.076 114.558C190.176 114.721 190.302 114.83 190.454 114.886C190.61 114.939 190.774 114.966 190.946 114.966C191.076 114.966 191.182 114.959 191.265 114.946C191.347 114.929 191.414 114.916 191.463 114.906L191.702 115.96C191.623 115.99 191.511 116.02 191.369 116.05C191.226 116.083 191.046 116.099 190.827 116.099C190.496 116.099 190.171 116.028 189.853 115.886C189.538 115.743 189.276 115.526 189.067 115.234C188.862 114.943 188.759 114.575 188.759 114.131V106.534ZM193.328 116V108.364H194.461V109.517H194.541C194.68 109.139 194.932 108.833 195.297 108.597C195.661 108.362 196.072 108.244 196.529 108.244C196.616 108.244 196.723 108.246 196.853 108.249C196.982 108.253 197.08 108.258 197.146 108.264V109.457C197.106 109.447 197.015 109.433 196.873 109.413C196.733 109.389 196.586 109.378 196.43 109.378C196.059 109.378 195.727 109.456 195.436 109.612C195.147 109.764 194.919 109.976 194.75 110.248C194.584 110.516 194.501 110.823 194.501 111.168V116H193.328ZM200.784 116.179C200.3 116.179 199.861 116.088 199.466 115.906C199.072 115.72 198.759 115.453 198.527 115.105C198.295 114.754 198.179 114.33 198.179 113.832C198.179 113.395 198.265 113.04 198.437 112.768C198.61 112.493 198.84 112.278 199.128 112.122C199.417 111.966 199.735 111.85 200.083 111.774C200.434 111.695 200.787 111.632 201.142 111.585C201.606 111.526 201.982 111.481 202.27 111.451C202.562 111.418 202.774 111.363 202.907 111.287C203.043 111.211 203.111 111.078 203.111 110.889V110.849C203.111 110.359 202.976 109.978 202.708 109.706C202.443 109.434 202.04 109.298 201.5 109.298C200.94 109.298 200.501 109.421 200.182 109.666C199.864 109.911 199.64 110.173 199.511 110.452L198.398 110.054C198.596 109.59 198.862 109.229 199.193 108.97C199.528 108.708 199.892 108.526 200.287 108.423C200.684 108.317 201.076 108.264 201.46 108.264C201.705 108.264 201.987 108.294 202.305 108.354C202.627 108.41 202.937 108.528 203.235 108.707C203.537 108.886 203.787 109.156 203.986 109.517C204.184 109.878 204.284 110.362 204.284 110.969V116H203.111V114.966H203.051C202.971 115.132 202.839 115.309 202.653 115.498C202.468 115.687 202.221 115.848 201.912 115.98C201.604 116.113 201.228 116.179 200.784 116.179ZM200.963 115.125C201.427 115.125 201.818 115.034 202.136 114.852C202.458 114.669 202.7 114.434 202.862 114.146C203.028 113.857 203.111 113.554 203.111 113.236V112.162C203.061 112.222 202.952 112.276 202.782 112.326C202.617 112.372 202.425 112.414 202.206 112.45C201.99 112.483 201.78 112.513 201.574 112.54C201.372 112.563 201.208 112.583 201.082 112.599C200.777 112.639 200.492 112.704 200.227 112.793C199.965 112.879 199.753 113.01 199.591 113.186C199.432 113.358 199.352 113.594 199.352 113.892C199.352 114.3 199.503 114.608 199.805 114.817C200.109 115.022 200.496 115.125 200.963 115.125ZM209.309 116.159C208.673 116.159 208.111 115.998 207.624 115.677C207.136 115.352 206.755 114.895 206.48 114.305C206.205 113.711 206.067 113.01 206.067 112.202C206.067 111.4 206.205 110.704 206.48 110.114C206.755 109.524 207.138 109.068 207.629 108.746C208.119 108.425 208.686 108.264 209.329 108.264C209.826 108.264 210.219 108.347 210.507 108.513C210.799 108.675 211.021 108.861 211.173 109.07C211.329 109.275 211.45 109.444 211.536 109.577H211.636V105.818H212.809V116H211.675V114.827H211.536C211.45 114.966 211.327 115.142 211.168 115.354C211.009 115.562 210.782 115.75 210.487 115.915C210.192 116.078 209.799 116.159 209.309 116.159ZM209.468 115.105C209.939 115.105 210.336 114.982 210.661 114.737C210.986 114.489 211.233 114.146 211.402 113.708C211.571 113.267 211.656 112.759 211.656 112.182C211.656 111.612 211.573 111.113 211.407 110.685C211.241 110.254 210.996 109.92 210.671 109.681C210.346 109.439 209.945 109.318 209.468 109.318C208.971 109.318 208.557 109.446 208.225 109.701C207.897 109.953 207.65 110.296 207.484 110.73C207.322 111.161 207.241 111.645 207.241 112.182C207.241 112.725 207.324 113.219 207.489 113.663C207.658 114.104 207.907 114.455 208.235 114.717C208.567 114.976 208.978 115.105 209.468 115.105ZM218.223 116.159C217.534 116.159 216.929 115.995 216.408 115.667C215.891 115.339 215.487 114.88 215.195 114.29C214.907 113.7 214.763 113.01 214.763 112.222C214.763 111.426 214.907 110.732 215.195 110.138C215.487 109.545 215.891 109.085 216.408 108.756C216.929 108.428 217.534 108.264 218.223 108.264C218.912 108.264 219.516 108.428 220.033 108.756C220.553 109.085 220.957 109.545 221.246 110.138C221.537 110.732 221.683 111.426 221.683 112.222C221.683 113.01 221.537 113.7 221.246 114.29C220.957 114.88 220.553 115.339 220.033 115.667C219.516 115.995 218.912 116.159 218.223 116.159ZM218.223 115.105C218.747 115.105 219.178 114.971 219.516 114.702C219.854 114.434 220.104 114.081 220.266 113.643C220.429 113.206 220.51 112.732 220.51 112.222C220.51 111.711 220.429 111.236 220.266 110.795C220.104 110.354 219.854 109.998 219.516 109.726C219.178 109.454 218.747 109.318 218.223 109.318C217.699 109.318 217.268 109.454 216.93 109.726C216.592 109.998 216.342 110.354 216.18 110.795C216.017 111.236 215.936 111.711 215.936 112.222C215.936 112.732 216.017 113.206 216.18 113.643C216.342 114.081 216.592 114.434 216.93 114.702C217.268 114.971 217.699 115.105 218.223 115.105Z" fill="black"/>
<path d="M112 9C104.287 9 96.7463 11.2873 90.3328 15.5727C83.9193 19.8581 78.9205 25.949 75.9687 33.0753C73.0169 40.2017 72.2446 48.0433 73.7494 55.6085C75.2542 63.1738 78.9686 70.1229 84.4229 75.5772C89.8771 81.0314 96.8262 84.7458 104.391 86.2506C111.957 87.7554 119.798 86.9831 126.925 84.0313C134.051 81.0795 140.142 76.0808 144.427 69.6672C148.713 63.2537 151 55.7135 151 48C150.989 37.6599 146.877 27.7464 139.565 20.4349C132.254 13.1233 122.34 9.01092 112 9ZM112 81C105.473 81 99.093 79.0646 93.6662 75.4385C88.2394 71.8124 84.0097 66.6585 81.512 60.6286C79.0143 54.5986 78.3608 47.9634 79.6341 41.562C80.9074 35.1606 84.0504 29.2806 88.6655 24.6655C93.2806 20.0503 99.1607 16.9074 105.562 15.6341C111.963 14.3608 118.599 15.0143 124.629 17.512C130.659 20.0097 135.812 24.2394 139.439 29.6662C143.065 35.093 145 41.4732 145 48C144.99 56.7491 141.51 65.137 135.324 71.3236C129.137 77.5101 120.749 80.9901 112 81ZM94 40.5C94 39.61 94.2639 38.74 94.7584 37.9999C95.2529 37.2599 95.9557 36.6831 96.7779 36.3425C97.6002 36.0019 98.505 35.9128 99.3779 36.0865C100.251 36.2601 101.053 36.6887 101.682 37.318C102.311 37.9474 102.74 38.7492 102.914 39.6221C103.087 40.495 102.998 41.3998 102.657 42.2221C102.317 43.0443 101.74 43.7471 101 44.2416C100.26 44.7361 99.39 45 98.5 45C97.3065 45 96.1619 44.5259 95.318 43.682C94.4741 42.8381 94 41.6935 94 40.5ZM130 40.5C130 41.39 129.736 42.26 129.242 43.0001C128.747 43.7401 128.044 44.3169 127.222 44.6575C126.4 44.9981 125.495 45.0872 124.622 44.9135C123.749 44.7399 122.947 44.3113 122.318 43.682C121.689 43.0526 121.26 42.2508 121.086 41.3779C120.913 40.505 121.002 39.6002 121.343 38.7779C121.683 37.9557 122.26 37.2529 123 36.7584C123.74 36.2639 124.61 36 125.5 36C126.693 36 127.838 36.4741 128.682 37.318C129.526 38.1619 130 39.3065 130 40.5ZM129.595 64.5C129.812 64.8415 129.958 65.2233 130.023 65.6225C130.089 66.0218 130.073 66.4302 129.977 66.8232C129.881 67.2162 129.706 67.5856 129.463 67.9093C129.221 68.233 128.915 68.5042 128.565 68.7067C128.214 68.9092 127.827 69.0387 127.425 69.0875C127.023 69.1363 126.616 69.1034 126.227 68.9906C125.839 68.8779 125.477 68.6877 125.164 68.4316C124.851 68.1754 124.593 67.8585 124.405 67.5C121.604 62.6587 117.201 60 112 60C106.799 60 102.396 62.6625 99.595 67.5C99.4075 67.8585 99.1493 68.1754 98.8362 68.4316C98.523 68.6877 98.1612 68.8779 97.7726 68.9906C97.384 69.1034 96.9767 69.1363 96.575 69.0875C96.1734 69.0387 95.7857 68.9092 95.4354 68.7067C95.0851 68.5042 94.7794 68.233 94.5367 67.9093C94.2939 67.5856 94.1192 67.2162 94.0229 66.8232C93.9266 66.4302 93.9109 66.0218 93.9765 65.6225C94.0422 65.2233 94.188 64.8415 94.405 64.5C98.2638 57.8288 104.676 54 112 54C119.324 54 125.736 57.825 129.595 64.5Z" fill="black"/>
</svg>
